<?xml version="1.0" standalone="no"?><!DOCTYPE svg PUBLIC "-//W3C//DTD SVG 1.1//EN" "http://www.w3.org/Graphics/SVG/1.1/DTD/svg11.dtd"><svg t="1581487905977" class="icon" viewBox="0 0 1024 1024" version="1.1" xmlns="http://www.w3.org/2000/svg" p-id="1938" xmlns:xlink="http://www.w3.org/1999/xlink" width="48" height="48"><defs><style type="text/css"></style></defs><path d="M170.666667 306.9952C170.666667 269.4144 201.3184 238.933333 238.592 238.933333h546.816C822.8864 238.933333 853.333333 269.482667 853.333333 306.9952v410.0096A68.164267 68.164267 0 0 1 785.408 785.066667H238.592C201.1136 785.066667 170.666667 754.517333 170.666667 717.0048V306.9952z m34.133333 0.443733v409.122134A34.133333 34.133333 0 0 0 238.6944 750.933333h546.6112A34.133333 34.133333 0 0 0 819.2 716.561067V307.438933A34.133333 34.133333 0 0 0 785.3056 273.066667H238.6944A34.133333 34.133333 0 0 0 204.8 307.438933z m180.4288 175.3088a87.7568 87.7568 0 1 1 0-175.547733 87.7568 87.7568 0 0 1 0 175.547733z m146.261333 117.0432v31.300267c0 19.114667-12.629333 43.076267-28.2624 53.828267 0 0 9.591467-5.597867-0.512 0.273066a232.994133 232.994133 0 0 1-117.486933 31.607467 232.994133 232.994133 0 0 1-116.872533-31.197867c-10.3424-5.973333-1.501867-0.9216-1.501867-0.9216-15.36-10.171733-27.921067-34.6112-27.921067-53.589333v-31.300267A87.893333 87.893333 0 0 1 326.724267 512H443.733333a87.893333 87.893333 0 0 1 87.7568 87.790933zM580.266667 426.666667a17.066667 17.066667 0 0 1 16.759466-17.066667h171.281067a17.066667 17.066667 0 0 1 0 34.133333h-171.281067a17.066667 17.066667 0 0 1-16.759466-17.066666z m34.133333 102.4c0-9.4208 7.338667-17.066667 16.9984-17.066667h136.669867c9.386667 0 16.9984 7.918933 16.9984 17.066667 0 9.4208-7.338667 17.066667-16.9984 17.066666h-136.669867a17.2032 17.2032 0 0 1-16.9984-17.066666z m34.133333 102.4c0-9.4208 7.338667-17.066667 16.725334-17.066667h103.082666a17.066667 17.066667 0 0 1 16.725334 17.066667c0 9.4208-7.338667 17.066667-16.725334 17.066666h-103.082666a17.066667 17.066667 0 0 1-16.725334-17.066666z" fill="#949494" p-id="1939"></path></svg>