<?xml version="1.0" standalone="no"?><!DOCTYPE svg PUBLIC "-//W3C//DTD SVG 1.1//EN" "http://www.w3.org/Graphics/SVG/1.1/DTD/svg11.dtd"><svg t="1581488047135" class="icon" viewBox="0 0 1024 1024" version="1.1" xmlns="http://www.w3.org/2000/svg" p-id="3916" xmlns:xlink="http://www.w3.org/1999/xlink" width="48" height="48"><defs><style type="text/css"></style></defs><path d="M511.8976 987.9552c-10.9568 0-18.3296-3.6864-25.6-7.2704-43.8272-25.6-204.8-120.6272-325.4272-259.584-10.9568-10.9568-21.9136-25.6-32.8704-36.5568-10.9568-14.6432-10.9568-40.2432 7.2704-51.2 14.6432-14.6432 36.5568-10.9568 47.5136 3.6864 7.2704 10.9568 18.3296 21.9136 29.2864 32.8704 109.6704 124.3136 248.6272 208.384 299.8272 241.3568 51.2-29.2864 215.7568-135.2704 329.1136-274.2272 76.8-95.0272 113.3568-190.1568 109.6704-281.4976-3.6864-117.0432-91.4432-219.3408-208.384-237.6704-76.8-14.6432-149.9136 3.6864-208.384 51.2-14.6432 10.9568-32.8704 10.9568-47.5136 0-58.4704-47.5136-135.2704-65.8432-212.0704-51.2C164.5568 139.6736 73.1136 245.76 73.1136 362.7008c0 36.5568 7.2704 76.8 18.3296 117.0432l98.7136-98.7136c14.6432-14.6432 36.5568-14.6432 51.2 0l120.6272 120.6272L519.168 344.4736c14.6432-14.6432 36.5568-14.6432 51.2 0 14.6432 14.6432 14.6432 36.5568 0 51.2L387.584 578.4576c-14.6432 14.6432-36.5568 14.6432-51.2 0L219.3408 454.144 105.984 567.5008c-7.2704 7.2704-18.3296 10.9568-32.8704 10.9568-10.9568-3.6864-21.9136-10.9568-25.6-18.3296C14.6432 494.3872 0 424.8576 0 362.7008 3.6864 205.5168 113.3568 73.8304 263.2704 44.6464c87.7568-18.3296 175.5136 0 248.6272 47.5136C585.0112 44.6464 672.768 26.3168 756.8384 40.96c149.9136 29.2864 259.584 157.184 266.9568 307.0976 3.6864 109.6704-36.5568 219.3408-128 329.1136-124.3136 157.184-307.0976 266.8544-358.2976 299.8272-7.3728 7.2704-14.6432 10.9568-25.6 10.9568z" p-id="3917" fill="#949494"></path></svg>