<?xml version="1.0" standalone="no"?><!DOCTYPE svg PUBLIC "-//W3C//DTD SVG 1.1//EN" "http://www.w3.org/Graphics/SVG/1.1/DTD/svg11.dtd"><svg t="1581488114776" class="icon" viewBox="0 0 1024 1024" version="1.1" xmlns="http://www.w3.org/2000/svg" p-id="4799" xmlns:xlink="http://www.w3.org/1999/xlink" width="48" height="48"><defs><style type="text/css"></style></defs><path d="M945.24 866.07l-96.74-78.31a441.66 441.66 0 0 0 96.7-275.19c0.32-243.88-197.13-441.86-441.02-442.18C260.29 70.07 62.32 267.52 62 511.4c-0.32 243.89 197.13 441.86 441.02 442.18a418 418 0 0 0 267.16-92.11l96.75 78.32a52.25 52.25 0 0 0 36.86 13.79c13.62 0.4 26.85-4.55 36.86-13.79a46.432 46.432 0 0 0 21.31-36.72 45.064 45.064 0 0 0-16.72-37z m-207.06-60.28V489.47c-0.42-7.28-6.23-13.1-13.52-13.52H675.1c-7.28 0.42-13.1 6.23-13.52 13.52v363.51c-30.92 14.32-64.05 24.48-98.82 29.98V593.11c-0.42-7.28-6.23-13.1-13.52-13.52h-49.57c-7.28 0.42-13.1 6.23-13.52 13.52v294.06c-37.76-1.73-74-8.94-108.06-20.99V692.24c-0.42-7.28-6.23-13.1-13.52-13.52H315c-7.28 0.42-13.1 6.23-13.52 13.52v136.65C196.65 762 126.91 644.94 126.91 511.35c0-208.04 168.65-376.7 376.69-376.7 207.96 0.25 376.47 168.79 376.69 376.75-0.01 119.27-55.61 225.38-142.11 294.39zM378 264.54c6.86 9.87 4.43 23.43-5.44 30.29a340.175 340.175 0 0 0-90.12 108.15c-5.49 9.34-17.04 13.19-27.04 9.01a27.856 27.856 0 0 1-9.01-31.54 328.38 328.38 0 0 1 99.13-121.66c0.15-0.11 0.29-0.22 0.44-0.33 9.92-7.26 23.85-5.09 31.11 4.83 0.32 0.41 0.64 0.82 0.93 1.25z" p-id="4800" fill="#949494"></path></svg>